<svg id="emoji" viewBox="0 0 72 72" xmlns="http://www.w3.org/2000/svg">
  <g id="color">
    <path fill="#ef5350" d="M50.7246,24.0823l1.0772-1.8738A6.049,6.049,0,0,0,44.15,14.091a8.011,8.011,0,0,1,1.6285-2.3473,2.0619,2.0619,0,0,0,.4238-2.2745,2.1243,2.1243,0,0,0-1.959-1.3037H27.7571a2.1243,2.1243,0,0,0-1.959,1.3037,2.0619,2.0619,0,0,0,.4238,2.2745,8.0374,8.0374,0,0,1,1.6121,2.3147,6,6,0,0,0-1.9851-.3519,6.0732,6.0732,0,0,0-5.5635,8.502L21.33,24.0261A15.2882,15.2882,0,0,0,17.3176,34.56c0,6.7949,4.2715,15.88,12.6953,27.0019a.9972.9972,0,0,0,.7969.3965H41.19a.9972.9972,0,0,0,.7969-.3965C50.41,50.44,54.6819,41.355,54.6819,34.56A15.3053,15.3053,0,0,0,50.7246,24.0823Z"/>
    <path fill="#c62828" d="M41.19,60.7988c6.2461-8.2467,12.4922-18.3771,12.4922-26.398A14.2921,14.2921,0,0,0,47.436,22.3932s-4.7024-3.0146-4.7024-6.5527a7.3033,7.3033,0,0,1,2.3279-4.9536,1.0927,1.0927,0,0,0-.0488-1.5616H39.7288a1.1162,1.1162,0,0,1,.8183,1.88,7.3029,7.3029,0,0,0-2.3279,4.9536c0,3.5381,4.7024,6.5527,4.7024,6.5527A14.2921,14.2921,0,0,1,49.1675,34.72c0,7.9189-6.0884,17.8906-12.2541,26.0791Z"/>
    <path fill="#3f3f3f" d="M45.8518,65.97H26.1477a.97.97,0,0,1-.97-.97c0-3.2041,4.5849-4.8047,5.1084-4.9766a.9682.9682,0,0,1,.3027-.0488H41.41a.9682.9682,0,0,1,.3027.0488c.5235.1719,5.1084,1.7725,5.1084,4.9766A.97.97,0,0,1,45.8518,65.97Z"/>
    <path fill="#3f3f3f" d="M46.2024,9.4692a2.1243,2.1243,0,0,0-1.959-1.3037H27.7571a2.1243,2.1243,0,0,0-1.959,1.3037,2.0619,2.0619,0,0,0,.4238,2.2745,7.1713,7.1713,0,0,1,1.88,3.0488c.0085.0315.0308.0541.042.084a.9853.9853,0,0,0,.9541.7724H42.9055a.9876.9876,0,0,0,.3123-.063.97.97,0,0,0,.1351-.0727.9943.9943,0,0,0,.1633-.11.9741.9741,0,0,0,.1142-.1225,1.0211,1.0211,0,0,0,.1746-.3162c.0076-.0232.0228-.0415.0288-.0656a7.08,7.08,0,0,1,1.9063-3.1474A2.0619,2.0619,0,0,0,46.2024,9.4692Z"/>
  </g>
  <g id="line">
    <line x1="21.0351" x2="50.9652" y1="45.2086" y2="45.2086" fill="none" stroke="#000" stroke-linecap="round" stroke-linejoin="round" stroke-width="2"/>
    <line x1="19.202" x2="52.798" y1="40.2707" y2="40.2707" fill="none" stroke="#000" stroke-linecap="round" stroke-linejoin="round" stroke-width="2"/>
    <path fill="none" stroke="#000" stroke-linecap="round" stroke-linejoin="round" stroke-width="2" d="M41.19,60.9583c6.246-8.2466,12.492-18.3771,12.492-26.398a14.292,14.292,0,0,0-6.246-12.0075S42.7337,19.5382,42.7337,16a7.3026,7.3026,0,0,1,2.3279-4.9535,1.1163,1.1163,0,0,0-.8184-1.8806H27.7568a1.1163,1.1163,0,0,0-.8184,1.8806A7.3026,7.3026,0,0,1,29.2663,16c0,3.5382-4.7023,6.5528-4.7023,6.5528A14.292,14.292,0,0,0,18.318,34.56c0,8.0209,6.246,18.1514,12.492,26.398Z"/>
    <path fill="none" stroke="#000" stroke-linecap="round" stroke-linejoin="round" stroke-width="1.9387" d="M30.59,60.945S26.148,62.4053,26.148,65H45.852c0-2.5947-4.4415-4.055-4.4415-4.055"/>
  </g>
</svg>
